<svg xmlns="http://www.w3.org/2000/svg" viewBox="-72 376 466 42" fill="#1992d4"><path d="M-48 376.4h.3c1.7.3 2.6 1.6 2.6 3.7v1.7c0 1.2.1 3.4.2 6.5l-.3 6.9c.1 5.1.2 7.9.2 8.4 0 2-.7 3.4-2.2 4.2l-.8.1c-2-.3-3-1.6-3-3.8.1-1.8.1-3.4.1-4.7v-1.7l.1-.6c0-2.2-1.1-3.2-3.3-3.2h-4.5c-4.6 0-6.8.5-6.8 1.5-.2.3-.3 1.8-.4 4.3 0 .4.1.9.1 1.5 0 3.5-.7 5.6-2.1 6.3-.5.1-.8.2-1 .2-1.3 0-2.2-.8-2.7-2.3-.2-.8-.3-2.2-.3-4.2V400c0-3 0-6-.1-9.1.1-1.3.1-2 .1-2.3-.1-2.1-.1-4.5-.1-7v-1c0-3 1-4.4 3.1-4.4h.3c1.3 0 2.2 1 2.8 2.9l.1.6c-.1 2.2-.1 4-.1 5.3.2 1.9 1 2.8 2.3 2.8.1.1.2.1.3.1.4 0 1.1 0 2.1.1.6 0 1.9 0 4-.1 3.5 0 5.2-.3 5.2-.6.7-.7 1.1-1.6 1.1-2.7 0-.7-.1-1.8-.2-3.4-.2-3.1.9-4.8 2.9-4.8zM-34.5 384.9h.3c1.3 0 2.2 1.1 2.6 3.2.1.6.1 1 .1 1.4l-.3 6c0 3.5.7 5.6 2 6.2.9.4 2 .6 3 .6h2.1c4.5 0 7.1-.5 7.8-1.6.2-1.3.3-2.6.3-4.2 0-1.1-.1-2.2-.1-3.2s-.1-1.7-.1-2.2c0-2.9.4-4.7 1.3-5.6.7-.4 1.4-.7 2-.7 1.2 0 2.1.8 2.7 2.5.2.5.3 1.8.3 4v2c0 .8 0 2.6-.1 5.2V404.2c-.1 1.7-.4 2.8-1 3.5-.4.6-1.1.8-2 .8-.4 0-1.7-.3-3.9-1h-.4c-1.8.4-4.7.6-8.7.6-3.5-.1-5.9-.5-7.1-1.3-1.1-.7-2.1-1.7-2.9-3-.6-2-.9-3.8-.9-5.4l-.1-5.2V390c-.2-3.5.9-5.1 3.1-5.1zM13 385.1c2.3.2 4 .6 5.2 1.1 1.2.5 2.1 1.1 2.7 1.7.5.6.8 1.4.8 2.6v.3c-.2 1.1-.7 1.7-1.6 1.8H20c-.8 0-1.7-.3-2.7-.8-.9-.7-3.3-1.2-7.3-1.4H8.9c-4.3 0-6.5.6-6.5 1.9 0 .9.4 1.6 1.2 1.9.5.2 1.2.3 2.1.3.7 0 1.5 0 2.4-.1.7-.1 1.5-.1 2.3-.1 1.7 0 3.7.1 5.8.4 1.5.2 2.8.7 3.9 1.5 1.2 1 1.8 2.5 1.8 4.6v1.2c0 2.5-1.5 4.3-4.4 5.5-1.6.5-3.8.8-6.5.8-1.2 0-2.4 0-3.8-.1-4.4-.1-7.6-1-9.3-2.7-.7-.6-1-1.3-1-2.2v-.3c0-1.3.5-2 1.5-2.2h.5c.9 0 2.1.4 3.6 1.2 2.3.7 4.1 1.1 5.2 1.2 1.1.1 2.1.1 2.9.1 1.1 0 2-.1 2.8-.2 1.7-.2 2.5-.8 2.5-1.8v-.2c0-1-1.5-1.6-4.6-1.7l-4.9.1c-4.3-.1-6.9-.8-8-2.1-1.4-1.3-2.1-2.9-2.1-5v-.5c.1-3.1 1.9-5.2 5.4-6.3 1.2-.2 2.6-.4 4.1-.5.8 0 1.6-.1 2.4-.1 1.8-.2 3.3-.1 4.8.1zM45.8 385.1c2.3.2 4 .6 5.2 1.1 1.2.5 2.1 1.1 2.7 1.7.5.6.8 1.4.8 2.6v.3c-.2 1.1-.7 1.7-1.6 1.8h-.1c-.8 0-1.7-.3-2.7-.8-.9-.7-3.3-1.2-7.3-1.4h-1.1c-4.3 0-6.5.6-6.5 1.9 0 .9.4 1.6 1.2 1.9.5.2 1.2.3 2.1.3.7 0 1.5 0 2.4-.1.7-.1 1.5-.1 2.3-.1 1.7 0 3.7.1 5.8.4 1.5.2 2.8.7 3.9 1.5 1.2 1 1.8 2.5 1.8 4.6v1.2c0 2.5-1.5 4.3-4.4 5.5-1.6.5-3.8.8-6.5.8-1.2 0-2.4 0-3.8-.1-4.4-.1-7.6-1-9.3-2.7-.7-.6-1-1.3-1-2.2v-.3c0-1.3.5-2 1.5-2.2h.5c.9 0 2.1.4 3.6 1.2 2.3.7 4.1 1.1 5.2 1.2 1.1.1 2.1.1 2.9.1 1.1 0 2-.1 2.8-.2 1.7-.2 2.5-.8 2.5-1.8v-.2c0-1-1.5-1.6-4.6-1.7l-4.9.1c-4.3-.1-6.9-.8-8-2.1-1.4-1.3-2.1-2.9-2.1-5v-.5c.1-3.1 1.9-5.2 5.4-6.3 1.2-.2 2.6-.4 4.1-.5.8 0 1.6-.1 2.4-.1 1.8-.2 3.4-.1 4.8.1zM80.4 384.7c2.7.2 4.5.8 5.3 1.9 1.8 1.4 2.7 3.7 2.7 7 0 3-1.9 4.5-5.7 4.5l-5.6-.2h-2.5c-2.9 0-4.7.2-5.2.5-.6.3-.8.7-.8 1.2 0 1.4 1.3 2.3 3.9 2.8 1 .2 1.8.3 2.6.3 2.7 0 5.2-.3 7.5-1 1.4-.9 2.4-1.4 2.9-1.4h.5c1.2.2 1.8 1.1 1.9 2.6v.1c0 1.7-1.1 2.9-3.3 3.7-2.1.7-4.2 1.1-6.2 1.3-1 .1-2.1.2-3.1.2s-1.9 0-2.9-.1c-4.5-.2-7.5-1.9-9.1-5.2-.6-2.1-1-3.9-1-5.5v-.6c0-5.6 1.5-9.2 4.5-10.9 2.1-.9 4.8-1.4 8.3-1.5 1.1-.1 2.9.1 5.3.3zm-11.3 6.4v.3c0 1 1.2 1.6 3.7 1.6h2.4c1.7.1 3.2.1 4.3.1 2 0 3.1-.1 3.2-.4.1-.2.1-.5.1-.9 0-.3 0-.8-.1-1.3-.2-1-2-1.5-5.5-1.5h-1c-4.5 0-6.8.3-6.8 1 0 .1-.2.4-.3 1.1zM99.4 384.8c1.7 0 3.3 1.7 5 5.2 1 1.5 2.1 3.3 3.3 5.4 1 1.6 1.8 2.4 2.3 2.4h.2c.9 0 2.1-1.8 3.6-5.5 1.2-2.9 2-4.8 2.6-5.9.9-.9 1.7-1.4 2.6-1.4h.1c1.5 0 2.4.8 2.6 2.4v.4c0 1.1-.9 3.4-2.6 6.8l-3.4 7.3c-1.2 3.1-3.1 7.1-5.5 11.9-1.6 2.5-3.7 3.7-6.4 3.7h-.6c-2.2 0-4.4-1-6.6-3-.4-.7-.6-1.3-.6-1.6v-.6c.3-1.4.9-2.1 2.1-2.1h.5c.8 0 2 .5 3.6 1.4.4.1.8.2 1.1.2 1 0 2-.9 2.9-2.7.3-.7.5-1.3.5-1.9v-.2c0-1.8-1-4.1-2.9-6.9-1.5-2.3-3.3-5-5.2-8-1.5-2.2-2.3-3.7-2.3-4.4v-.7c0-1.3 1-2.1 2.9-2.2h.2zM150.6 376.6c2.1 0 3.5.5 4.2 1.3.3.4.5.9.6 1.6 0 1.6-1.1 2.6-3.3 3h-7.8c-.9 0-2.6-.1-5.1-.1h-.4c-2.2 0-3.3.4-3.3 1.3-.1.1-.3.7-.4 1.7.1 1.6.8 2.5 1.9 2.7 4.2 0 7.5.1 9.8.2h.2c1.6 0 2.6.9 3 2.7v.6c0 1.5-1.1 2.3-3.1 2.5h-8.1c-1.6 0-2.6.2-3.1.6-.6.5-.9 1.4-.9 2.8v.2c0 2.8.5 4.2 1.6 4.2 0 .1.4.2 1.2.3h8.1c1.1-.1 2.1-.1 3-.1 1.5 0 2.9.1 4 .3 1.4.5 2.2 1.4 2.2 2.7 0 1.8-1.8 2.7-5.2 2.7h-15.5c-2.3-.1-3.8-.8-4.7-2.1-.4-.5-.6-3.1-.6-7.9v-2c0-.5.1-3.1.2-7.8v-7.3c0-1.7.9-2.9 2.5-3.4 0-.4 5-.6 14.8-.6h4.2zM165.7 384.9c1.4 0 4.1 1.8 8.2 5.3.6.7 1.2 1 1.8 1h.2c.9-.1 2.5-1.4 4.6-3.9 1.7-1.6 3.2-2.4 4.6-2.4 1.4 0 2.3.8 2.5 2.3 0 1.3-1.8 3.6-5.5 6.9-.8 1-1.2 1.8-1.2 2.5 0 .9 1.3 2.4 3.9 4.5 2 1.6 3 3 3 4.2 0 1.4-.9 2.2-2.6 2.4-1.5 0-3.5-1.4-6-4.3-1.5-1.3-2.7-2-3.4-2h-.2c-1 0-3.2 1.6-6.7 4.8-1.3.9-2.3 1.4-3.3 1.4-1.8-.2-2.7-.9-2.7-2.1v-.2c0-1.1 1.8-3.1 5.5-6 1.3-1.3 2-2.2 2-2.9 0-.7-1-1.9-3-3.6-2.8-2.6-4.1-4-4.1-4.2-.3-.6-.5-1.1-.5-1.5 0-1.1.6-1.8 1.9-2.2h1zM198.7 384.4c.6 0 1.4.2 2.4.5.6.2 1.5.3 2.7.3.7 0 1.6 0 2.6-.1l4.3-.1c1.8 0 4.1.5 6.9 1.6 2.2 1.4 3.3 3.9 3.3 7.4v4c0 2.5-.8 5-2.3 7.3-1.4 1.6-3.7 2.5-6.8 2.6H207c-.5 0-1.8-.1-4-.4h-.5c-1 0-1.5.6-1.7 1.7-.1 0-.1.2-.1.5.1 1.9.2 3.1.2 3.9v.3c-.2 2-1.1 3.1-2.7 3.5h-.5c-1.5 0-2.4-1.1-2.6-3.2-.1-.5-.1-1.1-.1-1.9v-3.8c-.1-4.5-.1-6.9-.1-7.3v-4.1l.1-4.3c-.1-2.9-.1-4.6-.1-5.1.3-2 1.5-3.1 3.8-3.3zm1.9 13.2c0 2.2.9 3.7 2.6 4.2 1.6.6 2.9.8 4 .8 4.1 0 6.7-.5 7.6-1.6.8-1.4 1.2-3 1.2-4.7 0-3-.6-4.9-1.8-5.5-.9-.5-2.5-.8-4.8-.8H207c-4.2 0-6.3 1.4-6.3 4.3-.1 1.4-.1 2.4-.1 3.3zM239.7 378.2c.4 1.1.6 2.3.6 3.7V383.5c0 1.3 0 3.2-.1 5.7v7.8c.1 2.6.3 4.5.8 5.6 1 .7 2.2 1.1 3.5 1.2 1.3.3 1.9 1 1.9 1.9 0 1.4-.9 2.1-2.6 2.2l-5.2-.1-4.6.1h-1.7c-1.1 0-1.8-.1-2.3-.1-.7-.1-1.3-.6-1.9-1.5l-.1-.6v-.1c0-1.2 1.1-1.8 3.4-2 1.8 0 2.8-.8 3-2.3.1 0 .3-1.5.4-4.5v-6.7-3.3c0-1.3 0-2.5-.1-3.6s-.7-1.8-1.9-2.1c-1.6-.7-2.4-1.5-2.4-2.4v-.4c0-1 .8-1.7 2.5-2.2.8-.1 1.6-.2 2.4-.2h.3c.4 0 .9 0 1.3.1 1.5.1 2.4.9 2.8 2.2zM268 384.3c5.7 0 9.1.9 10.2 2.8 1.4 2.1 2.1 5.1 2.1 9.1-.1 3.7-.6 6.4-1.5 8.1-.4 1.3-1.2 2.3-2.4 2.8-1.2.6-3.3 1-6.3 1.3h-4.3c-4.2-.2-6.8-.7-7.7-1.5-1.2-.8-2.1-2-2.8-3.7-1-2.4-1.5-4.8-1.5-7.2.2-5.8 1.8-9.4 4.9-10.9 2.4-.5 5.2-.8 8.2-.8h1.1zm-8.4 11.5c0 3.7.7 5.8 2.1 6.3.5.6 1.9.8 4.2.8 1.1 0 2.3-.1 3.8-.2 2.7-.2 4.1-.8 4.4-1.9.5-1.2.7-2.7.7-4.5 0-2.9-.4-4.7-1.2-5.4-.8-.7-1.9-1.1-3.4-1.3h-2.4c-1.4 0-2.8 0-4.2.1-1.9 0-3.2 1-3.9 2.9 0 .9-.1 2-.1 3.2zM290.6 384.3c.6 0 1.8.5 3.4 1.4l1 .2c2.9-.6 5-.8 6.1-.8h.1c4.5 0 7.4 1.2 8.7 3.6.3.7.5 1.4.5 2.1-.2 1.8-1.1 2.7-2.7 2.7-.9 0-2.1-.8-3.5-2.3-1-.5-2-.7-3.2-.7-2.9 0-5.1.7-6.7 2.2-.5 1.1-.8 2.5-.8 4.4v7.3c0 1.6-.7 2.8-2.2 3.6h-.8c-1.7 0-2.7-1.4-3-4.2v-.5c0-1 0-1.6.1-1.6-.1-1.1-.1-2-.1-2.7v-10.5c0-2.3.9-3.7 2.8-4.1h.3zM335.8 384.7c2.7.2 4.5.8 5.3 1.9 1.8 1.4 2.7 3.7 2.7 7 0 3-1.9 4.5-5.7 4.5l-5.6-.2H330c-2.9 0-4.7.2-5.2.5-.6.3-.8.7-.8 1.2 0 1.4 1.3 2.3 3.9 2.8 1 .2 1.8.3 2.6.3 2.7 0 5.2-.3 7.5-1 1.4-.9 2.4-1.4 2.9-1.4h.5c1.2.2 1.8 1.1 1.9 2.6v.1c0 1.7-1.1 2.9-3.3 3.7-2.1.7-4.2 1.1-6.2 1.3-1 .1-2.1.2-3.1.2s-1.9 0-2.9-.1c-4.5-.2-7.5-1.9-9.1-5.2-.6-2.1-1-3.9-1-5.5v-.6c0-5.6 1.5-9.2 4.5-10.9 2.1-.9 4.8-1.4 8.3-1.5 1.1-.1 2.8.1 5.3.3zm-11.4 6.4v.3c0 1 1.2 1.6 3.7 1.6h2.4c1.7.1 3.2.1 4.3.1 2 0 3.1-.1 3.2-.4.1-.2.1-.5.1-.9 0-.3 0-.8-.1-1.3-.2-1-2-1.5-5.5-1.5h-1c-4.5 0-6.8.3-6.8 1 0 .1-.2.4-.3 1.1zM367 385.1c2.3.2 4 .6 5.2 1.1 1.2.5 2.1 1.1 2.7 1.7.5.6.8 1.4.8 2.6v.3c-.2 1.1-.7 1.7-1.6 1.8h-.1c-.8 0-1.7-.3-2.7-.8-.9-.7-3.3-1.2-7.3-1.4h-1.1c-4.3 0-6.5.6-6.5 1.9 0 .9.4 1.6 1.2 1.9.5.2 1.2.3 2.1.3.7 0 1.5 0 2.4-.1.7-.1 1.5-.1 2.3-.1 1.7 0 3.7.1 5.8.4 1.5.2 2.8.7 3.9 1.5 1.2 1 1.8 2.5 1.8 4.6v1.2c0 2.5-1.5 4.3-4.4 5.5-1.6.5-3.8.8-6.5.8-1.2 0-2.4 0-3.8-.1-4.4-.1-7.6-1-9.3-2.7-.7-.6-1-1.3-1-2.2v-.3c0-1.3.5-2 1.5-2.2h.5c.9 0 2.1.4 3.6 1.2 2.3.7 4.1 1.1 5.2 1.2 1.1.1 2.1.1 2.9.1 1.1 0 2-.1 2.8-.2 1.7-.2 2.5-.8 2.5-1.8v-.2c0-1-1.5-1.6-4.6-1.7l-4.9.1c-4.3-.1-6.9-.8-8-2.1-1.4-1.3-2.1-2.9-2.1-5v-.5c.1-3.1 1.9-5.2 5.4-6.3 1.2-.2 2.6-.4 4.1-.5.8 0 1.6-.1 2.4-.1 1.8-.2 3.3-.1 4.8.1zM389.6 400.7c2.8 0 4.1 1.5 4.1 4.6v1.9c0 4-1.3 7.1-3.8 9.1-.5.4-1 .5-1.7.5h-.1c-1.1-.2-1.7-.7-1.7-1.7 0-.7.7-1.8 2-3.3.4-.7.6-1.2.6-1.6 0-.8-.6-1.6-1.9-2.3-.9-.7-1.4-1.7-1.4-3v-.2c0-2.2.9-3.5 2.6-3.9l1.3-.1zm.8-13.9c2 0 3.2 1 3.9 2.9.1.3.2.7.2 1.1-.4 2.8-1.8 4.2-4.1 4.2-2.1 0-3.6-1.2-4.3-3.5 0-.3-.1-.6-.1-.9v-.2c0-1.8 1-3 2.9-3.4.6-.2 1.1-.2 1.5-.2z"/></svg>